<mxfile host="app.diagrams.net" modified="2022-03-09T06:02:37.181Z" agent="5.0 (Macintosh; Intel Mac OS X 10_15_7) AppleWebKit/537.36 (KHTML, like Gecko) Chrome/99.0.4844.51 Safari/537.36" etag="qa-P8Cnx6RyNpIIHw7AU" version="16.6.5" type="github">
  <diagram id="V_4QPPrj77Y7XSzu8vO2" name="Page-1">
    <mxGraphModel dx="1809" dy="981" grid="0" gridSize="10" guides="1" tooltips="1" connect="1" arrows="1" fold="1" page="1" pageScale="1" pageWidth="1169" pageHeight="827" math="0" shadow="0">
      <root>
        <mxCell id="0" />
        <mxCell id="1" parent="0" />
        <mxCell id="c2BJm4hobzMm4srRRvAm-8" style="edgeStyle=orthogonalEdgeStyle;rounded=0;orthogonalLoop=1;jettySize=auto;html=1;exitX=0.5;exitY=1;exitDx=0;exitDy=0;entryX=0.5;entryY=0;entryDx=0;entryDy=0;" edge="1" parent="1" source="c2BJm4hobzMm4srRRvAm-1" target="c2BJm4hobzMm4srRRvAm-3">
          <mxGeometry relative="1" as="geometry" />
        </mxCell>
        <mxCell id="c2BJm4hobzMm4srRRvAm-1" value="api" style="rounded=1;whiteSpace=wrap;html=1;" vertex="1" parent="1">
          <mxGeometry x="120" y="50" width="120" height="60" as="geometry" />
        </mxCell>
        <mxCell id="c2BJm4hobzMm4srRRvAm-9" style="edgeStyle=orthogonalEdgeStyle;rounded=0;orthogonalLoop=1;jettySize=auto;html=1;entryX=0.5;entryY=0;entryDx=0;entryDy=0;" edge="1" parent="1" source="c2BJm4hobzMm4srRRvAm-2" target="c2BJm4hobzMm4srRRvAm-3">
          <mxGeometry relative="1" as="geometry" />
        </mxCell>
        <mxCell id="c2BJm4hobzMm4srRRvAm-2" value="saturn" style="rounded=1;whiteSpace=wrap;html=1;" vertex="1" parent="1">
          <mxGeometry x="275" y="50" width="120" height="60" as="geometry" />
        </mxCell>
        <mxCell id="c2BJm4hobzMm4srRRvAm-10" style="edgeStyle=orthogonalEdgeStyle;rounded=0;orthogonalLoop=1;jettySize=auto;html=1;exitX=0.5;exitY=1;exitDx=0;exitDy=0;entryX=0.5;entryY=0;entryDx=0;entryDy=0;" edge="1" parent="1" source="c2BJm4hobzMm4srRRvAm-3" target="c2BJm4hobzMm4srRRvAm-4">
          <mxGeometry relative="1" as="geometry" />
        </mxCell>
        <mxCell id="c2BJm4hobzMm4srRRvAm-3" value="service" style="rounded=1;whiteSpace=wrap;html=1;" vertex="1" parent="1">
          <mxGeometry x="195" y="150" width="120" height="60" as="geometry" />
        </mxCell>
        <mxCell id="c2BJm4hobzMm4srRRvAm-11" style="edgeStyle=orthogonalEdgeStyle;rounded=0;orthogonalLoop=1;jettySize=auto;html=1;exitX=0.5;exitY=1;exitDx=0;exitDy=0;" edge="1" parent="1" source="c2BJm4hobzMm4srRRvAm-4" target="c2BJm4hobzMm4srRRvAm-5">
          <mxGeometry relative="1" as="geometry" />
        </mxCell>
        <mxCell id="c2BJm4hobzMm4srRRvAm-14" value="yes" style="edgeLabel;html=1;align=center;verticalAlign=middle;resizable=0;points=[];" vertex="1" connectable="0" parent="c2BJm4hobzMm4srRRvAm-11">
          <mxGeometry x="-0.62" y="-2" relative="1" as="geometry">
            <mxPoint as="offset" />
          </mxGeometry>
        </mxCell>
        <mxCell id="c2BJm4hobzMm4srRRvAm-12" style="edgeStyle=orthogonalEdgeStyle;rounded=0;orthogonalLoop=1;jettySize=auto;html=1;entryX=0;entryY=0.5;entryDx=0;entryDy=0;exitX=0;exitY=0.5;exitDx=0;exitDy=0;" edge="1" parent="1" source="c2BJm4hobzMm4srRRvAm-4" target="c2BJm4hobzMm4srRRvAm-6">
          <mxGeometry relative="1" as="geometry" />
        </mxCell>
        <mxCell id="c2BJm4hobzMm4srRRvAm-15" value="no" style="edgeLabel;html=1;align=center;verticalAlign=middle;resizable=0;points=[];" vertex="1" connectable="0" parent="c2BJm4hobzMm4srRRvAm-12">
          <mxGeometry x="-0.5341" y="2" relative="1" as="geometry">
            <mxPoint y="1" as="offset" />
          </mxGeometry>
        </mxCell>
        <mxCell id="c2BJm4hobzMm4srRRvAm-4" value="env == live &amp;amp; cid == xx" style="rhombus;whiteSpace=wrap;html=1;" vertex="1" parent="1">
          <mxGeometry x="175" y="231" width="160" height="64" as="geometry" />
        </mxCell>
        <mxCell id="c2BJm4hobzMm4srRRvAm-13" style="edgeStyle=orthogonalEdgeStyle;rounded=0;orthogonalLoop=1;jettySize=auto;html=1;exitX=0.5;exitY=1;exitDx=0;exitDy=0;entryX=0.5;entryY=0;entryDx=0;entryDy=0;" edge="1" parent="1" source="c2BJm4hobzMm4srRRvAm-5" target="c2BJm4hobzMm4srRRvAm-6">
          <mxGeometry relative="1" as="geometry" />
        </mxCell>
        <mxCell id="c2BJm4hobzMm4srRRvAm-5" value="QA&amp;nbsp; batch&amp;nbsp; Python" style="rounded=1;whiteSpace=wrap;html=1;" vertex="1" parent="1">
          <mxGeometry x="195" y="330" width="120" height="60" as="geometry" />
        </mxCell>
        <mxCell id="c2BJm4hobzMm4srRRvAm-6" value="end" style="ellipse;whiteSpace=wrap;html=1;aspect=fixed;" vertex="1" parent="1">
          <mxGeometry x="225" y="420" width="60" height="60" as="geometry" />
        </mxCell>
        <mxCell id="c2BJm4hobzMm4srRRvAm-24" style="edgeStyle=orthogonalEdgeStyle;rounded=0;orthogonalLoop=1;jettySize=auto;html=1;entryX=0;entryY=0.5;entryDx=0;entryDy=0;" edge="1" parent="1" source="c2BJm4hobzMm4srRRvAm-16" target="c2BJm4hobzMm4srRRvAm-21">
          <mxGeometry relative="1" as="geometry" />
        </mxCell>
        <mxCell id="c2BJm4hobzMm4srRRvAm-26" value="input" style="edgeLabel;html=1;align=center;verticalAlign=middle;resizable=0;points=[];" vertex="1" connectable="0" parent="c2BJm4hobzMm4srRRvAm-24">
          <mxGeometry x="0.1226" relative="1" as="geometry">
            <mxPoint y="1" as="offset" />
          </mxGeometry>
        </mxCell>
        <mxCell id="c2BJm4hobzMm4srRRvAm-16" value="api invoke" style="shape=umlActor;verticalLabelPosition=bottom;verticalAlign=top;html=1;outlineConnect=0;" vertex="1" parent="1">
          <mxGeometry x="585" y="190" width="30" height="60" as="geometry" />
        </mxCell>
        <mxCell id="c2BJm4hobzMm4srRRvAm-19" value="wmsv2" style="swimlane;" vertex="1" parent="1">
          <mxGeometry x="680" y="135" width="320" height="270" as="geometry" />
        </mxCell>
        <mxCell id="c2BJm4hobzMm4srRRvAm-29" style="edgeStyle=orthogonalEdgeStyle;rounded=0;orthogonalLoop=1;jettySize=auto;html=1;exitX=0.25;exitY=1;exitDx=0;exitDy=0;entryX=0.25;entryY=0;entryDx=0;entryDy=0;" edge="1" parent="c2BJm4hobzMm4srRRvAm-19" source="c2BJm4hobzMm4srRRvAm-21" target="c2BJm4hobzMm4srRRvAm-22">
          <mxGeometry relative="1" as="geometry" />
        </mxCell>
        <mxCell id="c2BJm4hobzMm4srRRvAm-30" value="db info" style="edgeLabel;html=1;align=center;verticalAlign=middle;resizable=0;points=[];" vertex="1" connectable="0" parent="c2BJm4hobzMm4srRRvAm-29">
          <mxGeometry relative="1" as="geometry">
            <mxPoint as="offset" />
          </mxGeometry>
        </mxCell>
        <mxCell id="c2BJm4hobzMm4srRRvAm-32" style="edgeStyle=orthogonalEdgeStyle;rounded=0;orthogonalLoop=1;jettySize=auto;html=1;exitX=0.75;exitY=1;exitDx=0;exitDy=0;entryX=0.75;entryY=0;entryDx=0;entryDy=0;" edge="1" parent="c2BJm4hobzMm4srRRvAm-19" source="c2BJm4hobzMm4srRRvAm-21" target="c2BJm4hobzMm4srRRvAm-22">
          <mxGeometry relative="1" as="geometry" />
        </mxCell>
        <mxCell id="c2BJm4hobzMm4srRRvAm-33" value="input" style="edgeLabel;html=1;align=center;verticalAlign=middle;resizable=0;points=[];" vertex="1" connectable="0" parent="c2BJm4hobzMm4srRRvAm-32">
          <mxGeometry x="-0.1399" y="1" relative="1" as="geometry">
            <mxPoint as="offset" />
          </mxGeometry>
        </mxCell>
        <mxCell id="c2BJm4hobzMm4srRRvAm-21" value="service" style="rounded=1;whiteSpace=wrap;html=1;" vertex="1" parent="c2BJm4hobzMm4srRRvAm-19">
          <mxGeometry x="90" y="55" width="120" height="60" as="geometry" />
        </mxCell>
        <mxCell id="c2BJm4hobzMm4srRRvAm-35" style="edgeStyle=orthogonalEdgeStyle;rounded=0;orthogonalLoop=1;jettySize=auto;html=1;entryX=0;entryY=0;entryDx=0;entryDy=30;entryPerimeter=0;" edge="1" parent="c2BJm4hobzMm4srRRvAm-19" source="c2BJm4hobzMm4srRRvAm-22" target="c2BJm4hobzMm4srRRvAm-34">
          <mxGeometry relative="1" as="geometry" />
        </mxCell>
        <mxCell id="c2BJm4hobzMm4srRRvAm-37" value="write" style="edgeLabel;html=1;align=center;verticalAlign=middle;resizable=0;points=[];" vertex="1" connectable="0" parent="c2BJm4hobzMm4srRRvAm-35">
          <mxGeometry x="-0.1483" y="-1" relative="1" as="geometry">
            <mxPoint as="offset" />
          </mxGeometry>
        </mxCell>
        <mxCell id="c2BJm4hobzMm4srRRvAm-22" value="QA&amp;nbsp; batch&amp;nbsp; Python" style="rounded=1;whiteSpace=wrap;html=1;" vertex="1" parent="c2BJm4hobzMm4srRRvAm-19">
          <mxGeometry x="90" y="169" width="120" height="60" as="geometry" />
        </mxCell>
        <mxCell id="c2BJm4hobzMm4srRRvAm-34" value="log file" style="shape=card;whiteSpace=wrap;html=1;" vertex="1" parent="c2BJm4hobzMm4srRRvAm-19">
          <mxGeometry x="332" y="169" width="80" height="60" as="geometry" />
        </mxCell>
        <mxCell id="c2BJm4hobzMm4srRRvAm-20" value="live_xx" style="shape=cylinder3;whiteSpace=wrap;html=1;boundedLbl=1;backgroundOutline=1;size=15;" vertex="1" parent="1">
          <mxGeometry x="785" y="433" width="90" height="60" as="geometry" />
        </mxCell>
        <mxCell id="c2BJm4hobzMm4srRRvAm-25" style="edgeStyle=orthogonalEdgeStyle;rounded=0;orthogonalLoop=1;jettySize=auto;html=1;entryX=1;entryY=0.5;entryDx=0;entryDy=0;" edge="1" parent="1" source="c2BJm4hobzMm4srRRvAm-23" target="c2BJm4hobzMm4srRRvAm-21">
          <mxGeometry relative="1" as="geometry" />
        </mxCell>
        <mxCell id="c2BJm4hobzMm4srRRvAm-27" value="input" style="edgeLabel;html=1;align=center;verticalAlign=middle;resizable=0;points=[];" vertex="1" connectable="0" parent="c2BJm4hobzMm4srRRvAm-25">
          <mxGeometry x="0.1206" y="-1" relative="1" as="geometry">
            <mxPoint as="offset" />
          </mxGeometry>
        </mxCell>
        <mxCell id="c2BJm4hobzMm4srRRvAm-23" value="saturn invoke" style="shape=umlActor;verticalLabelPosition=bottom;verticalAlign=top;html=1;outlineConnect=0;" vertex="1" parent="1">
          <mxGeometry x="1031" y="190" width="30" height="60" as="geometry" />
        </mxCell>
        <mxCell id="c2BJm4hobzMm4srRRvAm-31" style="edgeStyle=orthogonalEdgeStyle;rounded=0;orthogonalLoop=1;jettySize=auto;html=1;" edge="1" parent="1" source="c2BJm4hobzMm4srRRvAm-22" target="c2BJm4hobzMm4srRRvAm-20">
          <mxGeometry relative="1" as="geometry" />
        </mxCell>
        <mxCell id="c2BJm4hobzMm4srRRvAm-36" value="write" style="edgeLabel;html=1;align=center;verticalAlign=middle;resizable=0;points=[];" vertex="1" connectable="0" parent="c2BJm4hobzMm4srRRvAm-31">
          <mxGeometry x="-0.7391" y="1" relative="1" as="geometry">
            <mxPoint x="-1" y="17" as="offset" />
          </mxGeometry>
        </mxCell>
      </root>
    </mxGraphModel>
  </diagram>
</mxfile>
